<!DOCTYPE svg PUBLIC "-//W3C//DTD SVG 20010904//EN" "http://www.w3.org/TR/2001/REC-SVG-20010904/DTD/svg10.dtd">
<svg version="1.0" xmlns="http://www.w3.org/2000/svg" width="260px" height="207px" viewBox="0 0 2600 2070" preserveAspectRatio="xMidYMid meet">
<g id="layer101" fill="#160a00" stroke="none">
 <path d="M455 1832 c-50 -3 -50 -4 -85 -64 -51 -89 -47 -110 61 -290 49 -82 101 -170 115 -196 25 -45 45 -79 159 -277 255 -443 335 -581 375 -650 l46 -80 71 -3 c67 -3 74 -1 102 25 17 15 61 80 97 143 103 178 411 713 478 830 33 58 99 172 148 254 l89 148 -32 62 c-17 33 -35 65 -39 69 -7 8 -99 10 -1025 22 -264 4 -487 7 -495 9 -8 1 -37 0 -65 -2z m560 -168 c14 -15 14 -18 0 -33 -8 -10 -15 -21 -15 -26 0 -5 -32 -62 -71 -127 -55 -91 -70 -123 -65 -143 10 -38 46 -95 62 -95 7 0 32 33 55 73 23 39 80 137 127 216 l85 144 191 -7 c272 -9 332 -9 345 -2 25 16 0 -34 -88 -179 -71 -115 -71 -118 -10 -209 22 -33 38 -63 37 -68 -2 -5 -46 63 -97 151 -64 109 -101 161 -115 165 -12 2 -42 8 -68 11 -67 10 -70 -8 -18 -92 100 -161 210 -354 210 -368 0 -8 -49 -102 -109 -208 -60 -107 -119 -213 -131 -237 l-22 -43 -42 74 c-24 41 -63 108 -88 149 l-45 75 -54 6 c-35 4 -7 6 83 7 l138 2 35 48 c62 85 71 81 -222 84 l-257 3 -84 140 c-100 166 -192 323 -192 327 0 2 71 3 158 3 86 -1 164 1 173 3 9 2 27 26 40 53 12 27 29 55 36 61 7 6 13 17 13 24 0 11 -26 14 -129 14 -76 0 -132 4 -136 10 -4 6 40 10 124 10 106 0 133 -3 146 -16z m61 -967 c134 -227 188 -327 180 -334 -8 -8 -4 -15 -76 112 -35 61 -87 151 -115 200 -68 115 -107 195 -98 195 5 -1 54 -78 109 -173z"/>
 </g>
<g id="layer102" fill="#473609" stroke="none">
 <path d="M409 1813 c-9 -10 -29 -39 -44 -65 -20 -36 -24 -49 -13 -52 7 -3 165 -7 351 -9 186 -3 341 -8 344 -10 3 -3 -28 -61 -68 -129 -41 -68 -83 -140 -93 -160 l-20 -38 24 -50 c13 -28 27 -53 31 -56 4 -2 53 74 109 168 56 95 116 194 132 221 l30 47 284 0 284 0 -32 -57 c-18 -32 -58 -101 -89 -153 l-57 -94 36 -68 c21 -37 40 -68 44 -68 3 0 18 21 33 48 37 62 173 294 241 407 30 50 54 95 54 102 0 7 -188 12 -657 17 -362 3 -714 9 -783 12 -114 5 -127 4 -141 -13z"/>
 <path d="M1987 1753 c-18 -32 -98 -172 -178 -311 -115 -201 -146 -249 -154 -236 -5 9 -22 35 -36 58 -14 22 -54 89 -88 149 l-63 107 -64 0 c-35 0 -64 -2 -64 -4 0 -3 50 -89 111 -193 62 -103 118 -202 126 -219 17 -35 36 4 -195 -406 -56 -101 -67 -115 -77 -100 -6 9 -47 77 -89 150 l-78 132 -79 0 c-43 0 -79 -3 -79 -6 0 -3 51 -92 113 -197 62 -106 126 -214 142 -242 16 -27 39 -67 53 -89 l24 -39 22 39 c12 22 65 113 118 204 52 91 121 210 153 265 32 55 66 114 75 130 9 17 79 138 155 270 76 132 162 283 192 335 30 52 58 99 64 105 5 5 9 15 9 21 0 12 -69 134 -76 134 -2 0 -18 -26 -37 -57z"/>
 <path d="M367 1652 c-9 -2 -17 -7 -17 -10 0 -4 21 -43 46 -87 25 -44 65 -114 88 -155 24 -41 105 -183 181 -315 292 -506 303 -526 400 -698 l60 -107 78 0 c42 0 77 2 77 4 0 3 -77 138 -170 301 -94 162 -173 302 -177 310 -4 13 22 15 184 15 l190 0 31 49 c18 27 32 52 32 55 0 3 -114 6 -254 6 l-254 0 -57 98 c-31 53 -92 158 -137 232 -44 74 -82 141 -85 147 -4 10 36 13 167 15 l172 3 39 64 c21 35 36 68 32 74 -5 9 -578 8 -626 -1z"/>
 </g>
<g id="layer103" fill="#6a5c23" stroke="none">
 <path d="M405 1805 c-49 -78 -65 -105 -63 -106 18 -6 105 -8 386 -9 182 0 332 -3 332 -6 0 -3 -43 -78 -96 -167 l-96 -162 26 -52 c14 -29 29 -53 33 -53 5 1 64 97 133 215 l124 215 288 0 c158 0 288 -3 288 -6 0 -4 -38 -71 -85 -150 -47 -79 -85 -147 -85 -153 0 -12 71 -134 75 -129 1 2 49 82 105 178 57 96 129 219 162 274 32 54 57 101 54 103 -3 3 -283 9 -623 14 -340 5 -692 10 -782 11 -155 3 -165 2 -176 -17z"/>
 <path d="M1990 1752 c-88 -163 -324 -561 -330 -557 -4 3 -49 74 -99 160 -84 141 -94 155 -124 160 -18 4 -47 5 -64 3 l-31 -3 128 -219 129 -219 -23 -41 c-13 -23 -74 -131 -136 -241 -61 -110 -115 -204 -119 -208 -7 -7 -119 170 -165 260 l-17 33 -80 0 c-44 0 -79 -3 -77 -7 2 -5 39 -69 83 -143 45 -74 117 -197 160 -272 44 -76 83 -138 86 -138 3 0 28 39 56 88 124 216 373 649 441 767 42 72 124 215 183 318 l108 188 -36 59 c-19 33 -38 60 -42 60 -3 0 -17 -22 -31 -48z"/>
 <path d="M350 1646 c0 -4 58 -105 563 -986 l215 -375 71 -3 c44 -2 71 1 71 7 0 9 -220 397 -330 584 l-22 37 194 0 193 0 33 50 c17 27 32 52 32 55 0 2 -115 6 -257 7 l-256 3 -143 240 c-79 132 -143 243 -144 248 0 4 80 7 178 7 l177 0 37 65 37 65 -325 0 c-178 0 -324 -2 -324 -4z"/>
 </g>
<g id="layer104" fill="#88783d" stroke="none">
 <path d="M382 1765 c-19 -31 -32 -59 -29 -62 3 -2 163 -7 357 -10 297 -5 350 -8 346 -20 -3 -8 -45 -81 -93 -161 -47 -81 -87 -150 -89 -153 -3 -6 45 -109 51 -109 2 0 50 78 106 173 56 94 113 191 128 214 l26 43 292 0 292 0 -91 -152 -90 -153 33 -62 c18 -35 36 -63 40 -63 4 0 34 46 67 103 33 56 106 179 161 272 l101 170 -227 6 c-126 4 -480 10 -788 13 l-560 8 -33 -57z"/>
 <path d="M2002 1768 c-16 -26 -191 -330 -318 -551 l-22 -39 -57 99 c-32 54 -75 128 -97 164 l-39 67 -55 7 c-31 4 -58 4 -61 2 -6 -7 -1 -17 134 -245 l114 -193 -142 -256 c-136 -245 -142 -254 -156 -232 -8 13 -49 83 -91 154 l-77 130 -72 3 c-40 2 -73 -1 -73 -6 0 -5 70 -128 155 -273 85 -144 156 -267 158 -273 3 -6 7 -9 9 -6 3 3 83 140 178 305 95 165 268 467 386 672 118 205 214 377 214 384 0 12 -59 119 -65 119 -2 0 -12 -15 -23 -32z"/>
 <path d="M350 1647 c0 -2 80 -143 178 -313 98 -170 274 -477 391 -682 l214 -372 69 1 c37 1 68 5 68 9 0 4 -79 144 -175 311 l-175 304 190 3 190 2 35 53 35 52 -257 3 -258 3 -142 243 c-79 133 -143 245 -143 249 0 4 80 8 177 9 l177 3 32 55 c18 30 33 58 34 63 0 4 -144 7 -320 7 -176 0 -320 -2 -320 -3z"/>
 </g>
<g id="layer105" fill="#a7954d" stroke="none">
 <path d="M382 1764 c-18 -31 -31 -58 -30 -60 2 -1 162 -6 356 -10 193 -4 352 -10 352 -15 0 -6 -69 -125 -170 -294 -18 -30 -18 -31 9 -84 l27 -53 128 216 128 216 295 0 295 0 -14 -22 c-8 -13 -49 -82 -92 -154 l-77 -132 33 -61 c18 -33 35 -61 38 -61 3 0 78 123 167 273 l162 272 -307 6 c-169 4 -523 9 -787 13 l-480 7 -33 -57z"/>
 <path d="M1855 1508 c-93 -161 -174 -301 -181 -312 -11 -16 -23 0 -110 147 l-98 165 -55 5 c-31 2 -57 3 -59 2 -2 -2 54 -101 124 -220 123 -212 126 -218 112 -244 -8 -14 -73 -129 -143 -254 -70 -126 -131 -225 -135 -220 -4 4 -46 74 -93 154 l-86 146 -68 -2 c-47 -2 -67 -7 -65 -15 1 -7 41 -78 89 -159 47 -80 117 -199 155 -265 l70 -119 27 49 c26 47 88 155 548 952 111 194 203 358 203 365 0 6 -15 36 -34 65 l-33 54 -168 -294z"/>
 <path d="M353 1643 c3 -5 56 -98 119 -208 457 -796 557 -971 605 -1053 l54 -92 70 0 70 0 -32 58 c-18 31 -97 169 -176 306 -79 136 -143 250 -143 252 0 2 82 4 183 4 100 0 187 4 193 8 14 9 64 84 64 96 0 5 -104 7 -250 4 l-249 -5 -135 226 c-136 230 -156 265 -156 275 0 3 79 6 175 6 l174 0 36 61 c19 33 35 62 35 65 0 2 -144 4 -321 4 -176 0 -318 -3 -316 -7z"/>
 </g>
<g id="layer106" fill="#eed254" stroke="none">
 <path d="M386 1764 l-36 -59 356 -7 c196 -4 358 -9 360 -11 2 -2 -39 -75 -91 -163 -52 -87 -95 -166 -95 -174 1 -8 11 -34 23 -58 l22 -42 117 197 c64 109 121 208 127 221 l12 22 289 0 c159 0 291 -4 294 -8 3 -5 -35 -77 -84 -160 l-90 -150 36 -62 37 -61 119 203 c66 112 138 233 159 269 21 36 39 68 39 71 0 2 -246 8 -547 12 -302 3 -652 9 -779 13 l-231 6 -37 -59z"/>
 <path d="M2013 1778 c-9 -12 -88 -148 -280 -485 -35 -62 -67 -113 -71 -113 -4 0 -33 47 -65 103 -32 57 -76 131 -97 165 l-39 62 -55 0 -55 0 125 -212 c69 -116 123 -217 122 -224 -5 -22 -273 -503 -280 -504 -4 0 -46 67 -95 150 l-88 150 -72 0 -72 0 75 -128 c41 -70 112 -191 157 -269 45 -79 84 -143 87 -143 3 0 19 24 36 53 17 28 129 223 249 432 120 209 259 450 308 535 49 85 112 194 139 242 l50 87 -32 56 c-17 30 -33 55 -35 55 -1 0 -7 -6 -12 -12z"/>
 <path d="M356 1638 c4 -7 17 -29 29 -48 12 -19 34 -57 50 -85 15 -27 105 -185 200 -350 95 -165 245 -426 333 -580 l161 -280 70 -3 70 -3 -33 58 c-18 32 -96 169 -174 305 -78 136 -142 251 -142 257 0 8 63 11 193 11 l192 0 27 43 27 42 -251 5 -252 5 -56 95 c-131 219 -235 395 -238 402 -2 4 78 9 178 10 l181 3 35 63 35 62 -321 0 c-254 0 -320 -3 -314 -12z"/>
 </g>

</svg>